<svg xmlns="http://www.w3.org/2000/svg" xmlns:xlink="http://www.w3.org/1999/xlink" width="500" zoomAndPan="magnify" viewBox="0 0 375 374.999991" height="500" preserveAspectRatio="xMidYMid meet" version="1.0"><defs><g/><clipPath id="11d18e36b1"><path d="M 137.628906 73 L 237.378906 73 L 237.378906 199.695312 L 137.628906 199.695312 Z M 137.628906 73 " clip-rule="nonzero"/></clipPath></defs><g clip-path="url(#11d18e36b1)"><path fill="#4369e9" d="M 146.34375 96.582031 C 145.066406 96.582031 145.035156 94.644531 146.34375 94.644531 C 233.449219 94.644531 229.4375 94.109375 229.4375 95.605469 C 229.4375 97.125 233.554688 96.582031 146.34375 96.582031 Z M 146.34375 108.191406 C 145.050781 108.191406 145.050781 106.238281 146.34375 106.238281 C 233.566406 106.238281 229.4375 105.695312 229.4375 107.214844 C 229.4375 108.742188 233.566406 108.191406 146.34375 108.191406 Z M 146.34375 119.78125 C 145.035156 119.78125 145.066406 117.847656 146.34375 117.847656 C 233.566406 117.847656 229.4375 117.304688 229.4375 118.824219 C 229.4375 120.320312 233.449219 119.78125 146.34375 119.78125 Z M 146.34375 131.402344 C 145.066406 131.402344 145.035156 129.464844 146.34375 129.464844 C 233.449219 129.464844 229.4375 128.929688 229.4375 130.417969 C 229.4375 131.945312 233.566406 131.402344 146.34375 131.402344 Z M 146.34375 143.011719 C 145.050781 143.011719 145.050781 141.050781 146.34375 141.050781 C 233.566406 141.050781 229.4375 140.515625 229.4375 142.035156 C 229.4375 143.554688 233.566406 143.011719 146.34375 143.011719 Z M 146.34375 154.605469 C 145.027344 154.605469 145.066406 152.667969 146.34375 152.667969 C 233.566406 152.667969 229.4375 152.125 229.4375 153.652344 C 229.4375 155.140625 233.679688 154.605469 146.34375 154.605469 Z M 146.34375 166.222656 C 145.066406 166.222656 145.035156 164.285156 146.34375 164.285156 C 233.449219 164.285156 229.4375 163.75 229.4375 165.238281 C 229.4375 166.765625 233.566406 166.222656 146.34375 166.222656 Z M 146.34375 177.832031 C 145.050781 177.832031 145.050781 175.878906 146.34375 175.878906 C 233.566406 175.878906 229.4375 175.335938 229.4375 176.855469 C 229.4375 178.375 233.566406 177.832031 146.34375 177.832031 Z M 146.34375 189.425781 C 145.035156 189.425781 145.066406 187.488281 146.34375 187.488281 C 233.566406 187.488281 229.4375 186.945312 229.4375 188.464844 C 229.4375 189.960938 233.449219 189.425781 146.34375 189.425781 Z M 229.4375 73.019531 L 229.4375 80.386719 C 229.4375 86.449219 220.28125 86.425781 220.28125 80.386719 L 220.28125 73.019531 L 214.464844 73.019531 L 214.464844 80.386719 C 214.464844 82.921875 212.398438 84.96875 209.878906 84.96875 C 207.363281 84.96875 205.304688 82.921875 205.304688 80.386719 L 205.304688 73.019531 L 199.464844 73.019531 L 199.464844 80.386719 C 199.464844 86.433594 190.332031 86.449219 190.332031 80.386719 L 190.332031 73.019531 L 184.480469 73.019531 L 184.480469 80.386719 C 184.480469 86.433594 175.332031 86.441406 175.332031 80.386719 L 175.332031 73.019531 L 169.515625 73.019531 L 169.515625 80.386719 C 169.515625 86.425781 160.359375 86.457031 160.359375 80.386719 L 160.359375 73.019531 L 154.515625 73.019531 L 154.515625 80.386719 C 154.515625 86.433594 145.359375 86.441406 145.359375 80.386719 L 145.359375 73.019531 L 137.625 73.019531 L 137.625 199.832031 L 237.171875 199.832031 L 237.171875 73.019531 L 229.4375 73.019531 " fill-opacity="1" fill-rule="nonzero"/></g><path fill="#4369e9" d="M 227.503906 76.660156 L 227.503906 73.019531 L 222.238281 73.019531 L 222.238281 76.660156 C 223.871094 75.523438 225.945312 75.582031 227.503906 76.660156 " fill-opacity="1" fill-rule="nonzero"/><path fill="#4369e9" d="M 227.503906 80.386719 C 227.503906 76.9375 222.238281 76.90625 222.238281 80.386719 C 222.238281 83.90625 227.503906 83.855469 227.503906 80.386719 " fill-opacity="1" fill-rule="nonzero"/><path fill="#4369e9" d="M 212.527344 76.660156 L 212.527344 73.019531 L 207.238281 73.019531 L 207.238281 76.660156 C 208.839844 75.546875 210.9375 75.554688 212.527344 76.660156 " fill-opacity="1" fill-rule="nonzero"/><path fill="#4369e9" d="M 212.527344 80.386719 C 212.527344 76.921875 207.238281 76.921875 207.238281 80.386719 C 207.238281 83.882812 212.527344 83.882812 212.527344 80.386719 " fill-opacity="1" fill-rule="nonzero"/><path fill="#4369e9" d="M 197.53125 76.660156 L 197.53125 73.019531 L 192.265625 73.019531 L 192.265625 76.660156 C 193.898438 75.523438 195.960938 75.570312 197.53125 76.660156 " fill-opacity="1" fill-rule="nonzero"/><path fill="#4369e9" d="M 197.53125 80.386719 C 197.53125 76.9375 192.265625 76.914062 192.265625 80.386719 C 192.265625 83.890625 197.53125 83.871094 197.53125 80.386719 " fill-opacity="1" fill-rule="nonzero"/><path fill="#4369e9" d="M 182.546875 76.660156 L 182.546875 73.019531 L 177.265625 73.019531 L 177.265625 76.660156 C 178.859375 75.554688 180.957031 75.546875 182.546875 76.660156 " fill-opacity="1" fill-rule="nonzero"/><path fill="#4369e9" d="M 182.546875 80.386719 C 182.546875 76.921875 177.265625 76.921875 177.265625 80.386719 C 177.265625 83.882812 182.546875 83.882812 182.546875 80.386719 " fill-opacity="1" fill-rule="nonzero"/><path fill="#4369e9" d="M 167.558594 76.660156 L 167.558594 73.019531 L 162.292969 73.019531 L 162.292969 76.660156 C 163.859375 75.570312 165.925781 75.523438 167.558594 76.660156 " fill-opacity="1" fill-rule="nonzero"/><path fill="#4369e9" d="M 167.558594 80.386719 C 167.558594 76.914062 162.292969 76.9375 162.292969 80.386719 C 162.292969 83.871094 167.558594 83.890625 167.558594 80.386719 " fill-opacity="1" fill-rule="nonzero"/><path fill="#4369e9" d="M 152.582031 76.660156 L 152.582031 73.019531 L 147.292969 73.019531 L 147.292969 76.660156 C 148.886719 75.554688 150.984375 75.546875 152.582031 76.660156 " fill-opacity="1" fill-rule="nonzero"/><path fill="#4369e9" d="M 152.582031 80.386719 C 152.582031 76.921875 147.292969 76.921875 147.292969 80.386719 C 147.292969 83.882812 152.582031 83.882812 152.582031 80.386719 " fill-opacity="1" fill-rule="nonzero"/><g fill="#000000" fill-opacity="1"><g transform="translate(9.060373, 255.546005)"><g><path d="M 21.1875 -26.328125 C 20.03125 -26.953125 18.800781 -27.457031 17.5 -27.84375 C 16.207031 -28.226562 14.984375 -28.421875 13.828125 -28.421875 C 12.085938 -28.421875 10.707031 -28.023438 9.6875 -27.234375 C 8.664062 -26.453125 8.15625 -25.382812 8.15625 -24.03125 C 8.15625 -22.695312 8.753906 -21.609375 9.953125 -20.765625 C 11.148438 -19.921875 12.859375 -19.085938 15.078125 -18.265625 C 16.722656 -17.671875 18.113281 -17.023438 19.25 -16.328125 C 20.394531 -15.640625 21.34375 -14.679688 22.09375 -13.453125 C 22.851562 -12.222656 23.234375 -10.664062 23.234375 -8.78125 C 23.234375 -7.0625 22.800781 -5.507812 21.9375 -4.125 C 21.082031 -2.738281 19.863281 -1.644531 18.28125 -0.84375 C 16.695312 -0.0390625 14.84375 0.359375 12.71875 0.359375 C 10.738281 0.359375 8.832031 0.0390625 7 -0.59375 C 5.164062 -1.226562 3.554688 -2.035156 2.171875 -3.015625 L 4.078125 -6.421875 C 5.171875 -5.597656 6.484375 -4.894531 8.015625 -4.3125 C 9.554688 -3.738281 10.992188 -3.453125 12.328125 -3.453125 C 14.035156 -3.453125 15.53125 -3.894531 16.8125 -4.78125 C 18.101562 -5.675781 18.75 -6.992188 18.75 -8.734375 C 18.75 -10.210938 18.207031 -11.382812 17.125 -12.25 C 16.050781 -13.125 14.539062 -13.945312 12.59375 -14.71875 C 10.789062 -15.394531 9.289062 -16.054688 8.09375 -16.703125 C 6.894531 -17.359375 5.863281 -18.253906 5 -19.390625 C 4.144531 -20.523438 3.71875 -21.953125 3.71875 -23.671875 C 3.71875 -26.179688 4.597656 -28.210938 6.359375 -29.765625 C 8.117188 -31.316406 10.398438 -32.140625 13.203125 -32.234375 C 16.660156 -32.234375 19.867188 -31.375 22.828125 -29.65625 Z M 21.1875 -26.328125 "/></g></g></g><g fill="#000000" fill-opacity="1"><g transform="translate(34.854783, 255.546005)"><g><path d="M 13.203125 -32.046875 C 16.691406 -32.046875 19.421875 -31.171875 21.390625 -29.421875 C 23.359375 -27.679688 24.34375 -25.25 24.34375 -22.125 C 24.34375 -20.320312 23.976562 -18.632812 23.25 -17.0625 C 22.53125 -15.5 21.363281 -14.226562 19.75 -13.25 C 18.132812 -12.28125 16.101562 -11.796875 13.65625 -11.796875 L 8.90625 -11.796875 L 8.90625 0 L 4.609375 0 L 4.609375 -32.046875 Z M 13.65625 -15.953125 C 15.1875 -15.953125 16.429688 -16.273438 17.390625 -16.921875 C 18.359375 -17.578125 19.046875 -18.367188 19.453125 -19.296875 C 19.867188 -20.234375 20.078125 -21.144531 20.078125 -22.03125 C 20.078125 -23.570312 19.570312 -24.9375 18.5625 -26.125 C 17.5625 -27.320312 16 -27.921875 13.875 -27.921875 L 8.90625 -27.921875 L 8.90625 -15.953125 Z M 13.65625 -15.953125 "/></g></g></g><g fill="#000000" fill-opacity="1"><g transform="translate(61.225356, 255.546005)"><g><path d="M 21.40625 -8.421875 L 9.09375 -8.421875 L 5.671875 0 L 1.421875 0 L 15.421875 -33.375 L 15.6875 -33.375 L 29.703125 0 L 24.734375 0 Z M 19.953125 -12.140625 L 15.375 -23.84375 L 10.640625 -12.140625 Z M 19.953125 -12.140625 "/></g></g></g><g fill="#000000" fill-opacity="1"><g transform="translate(92.293878, 255.546005)"><g><path d="M 22.25 0 L 14.71875 -11.828125 C 14.476562 -11.804688 14.125 -11.796875 13.65625 -11.796875 L 8.90625 -11.796875 L 8.90625 0 L 4.609375 0 L 4.609375 -32.046875 L 13.171875 -32.046875 C 15.359375 -32.046875 17.304688 -31.660156 19.015625 -30.890625 C 20.734375 -30.128906 22.078125 -29 23.046875 -27.5 C 24.023438 -26.007812 24.515625 -24.21875 24.515625 -22.125 C 24.515625 -20.144531 24.078125 -18.328125 23.203125 -16.671875 C 22.328125 -15.015625 20.988281 -13.757812 19.1875 -12.90625 L 27.265625 0 Z M 13.5625 -15.953125 C 15.863281 -15.953125 17.523438 -16.554688 18.546875 -17.765625 C 19.566406 -18.984375 20.078125 -20.375 20.078125 -21.9375 C 20.078125 -22.882812 19.863281 -23.816406 19.4375 -24.734375 C 19.007812 -25.648438 18.328125 -26.410156 17.390625 -27.015625 C 16.460938 -27.617188 15.289062 -27.921875 13.875 -27.921875 L 8.90625 -27.921875 L 8.90625 -15.953125 Z M 13.5625 -15.953125 "/></g></g></g><g fill="#000000" fill-opacity="1"><g transform="translate(121.54526, 255.546005)"><g><path d="M 8.859375 -17.546875 L 9.390625 -18.390625 L 22.515625 -32.046875 L 28.0625 -32.046875 L 14.8125 -18.3125 L 28.8125 0 L 23.359375 0 L 11.65625 -15.5625 L 8.953125 -12.9375 L 9 0 L 4.609375 0 L 4.609375 -32.046875 L 9 -32.046875 L 9 -19.15625 Z M 8.859375 -17.546875 "/></g></g></g><g fill="#000000" fill-opacity="1"><g transform="translate(151.683056, 255.546005)"><g><path d="M 32.53125 -32.046875 L 32.53125 1.0625 L 32.40625 1.0625 L 8.859375 -22.828125 L 8.953125 0 L 4.609375 0 L 4.609375 -33.03125 L 4.828125 -33.03125 L 28.328125 -8.859375 L 28.234375 -32.046875 Z M 32.53125 -32.046875 "/></g></g></g><g fill="#000000" fill-opacity="1"><g transform="translate(188.823458, 255.546005)"><g><path d="M 2.609375 -16 C 2.609375 -18.925781 3.347656 -21.644531 4.828125 -24.15625 C 6.304688 -26.664062 8.296875 -28.664062 10.796875 -30.15625 C 13.296875 -31.65625 16.019531 -32.40625 18.96875 -32.40625 C 21.894531 -32.40625 24.613281 -31.65625 27.125 -30.15625 C 29.632812 -28.664062 31.632812 -26.664062 33.125 -24.15625 C 34.625 -21.644531 35.375 -18.925781 35.375 -16 C 35.375 -13.039062 34.632812 -10.304688 33.15625 -7.796875 C 31.675781 -5.285156 29.671875 -3.296875 27.140625 -1.828125 C 24.617188 -0.367188 21.894531 0.359375 18.96875 0.359375 C 16.019531 0.359375 13.285156 -0.363281 10.765625 -1.8125 C 8.253906 -3.257812 6.265625 -5.234375 4.796875 -7.734375 C 3.335938 -10.234375 2.609375 -12.988281 2.609375 -16 Z M 7.046875 -15.953125 C 7.046875 -13.765625 7.578125 -11.738281 8.640625 -9.875 C 9.703125 -8.019531 11.15625 -6.546875 13 -5.453125 C 14.851562 -4.359375 16.875 -3.8125 19.0625 -3.8125 C 21.25 -3.8125 23.25 -4.347656 25.0625 -5.421875 C 26.882812 -6.503906 28.316406 -7.984375 29.359375 -9.859375 C 30.410156 -11.734375 30.9375 -13.78125 30.9375 -16 C 30.9375 -18.21875 30.40625 -20.269531 29.34375 -22.15625 C 28.28125 -24.050781 26.832031 -25.546875 25 -26.640625 C 23.164062 -27.734375 21.15625 -28.28125 18.96875 -28.28125 C 16.78125 -28.28125 14.769531 -27.722656 12.9375 -26.609375 C 11.113281 -25.503906 9.675781 -24.003906 8.625 -22.109375 C 7.570312 -20.222656 7.046875 -18.171875 7.046875 -15.953125 Z M 7.046875 -15.953125 "/></g></g></g><g fill="#000000" fill-opacity="1"><g transform="translate(226.80595, 255.546005)"><g><path d="M 23.53125 -32.046875 L 23.53125 -27.921875 L 14.9375 -27.921875 L 14.9375 0 L 10.640625 0 L 10.640625 -27.921875 L 2.265625 -27.921875 L 2.265625 -32.046875 Z M 23.53125 -32.046875 "/></g></g></g><g fill="#000000" fill-opacity="1"><g transform="translate(252.600359, 255.546005)"><g><path d="M 25.4375 -32.046875 L 25.4375 -27.921875 L 8.90625 -27.921875 L 8.90625 -18.171875 L 23.671875 -18.171875 L 23.671875 -14.046875 L 8.90625 -14.046875 L 8.90625 -4.171875 L 26.0625 -4.171875 L 26.0625 0 L 4.609375 0 L 4.609375 -32.046875 Z M 25.4375 -32.046875 "/></g></g></g><g fill="#000000" fill-opacity="1"><g transform="translate(281.541504, 255.546005)"><g><path d="M 21.1875 -26.328125 C 20.03125 -26.953125 18.800781 -27.457031 17.5 -27.84375 C 16.207031 -28.226562 14.984375 -28.421875 13.828125 -28.421875 C 12.085938 -28.421875 10.707031 -28.023438 9.6875 -27.234375 C 8.664062 -26.453125 8.15625 -25.382812 8.15625 -24.03125 C 8.15625 -22.695312 8.753906 -21.609375 9.953125 -20.765625 C 11.148438 -19.921875 12.859375 -19.085938 15.078125 -18.265625 C 16.722656 -17.671875 18.113281 -17.023438 19.25 -16.328125 C 20.394531 -15.640625 21.34375 -14.679688 22.09375 -13.453125 C 22.851562 -12.222656 23.234375 -10.664062 23.234375 -8.78125 C 23.234375 -7.0625 22.800781 -5.507812 21.9375 -4.125 C 21.082031 -2.738281 19.863281 -1.644531 18.28125 -0.84375 C 16.695312 -0.0390625 14.84375 0.359375 12.71875 0.359375 C 10.738281 0.359375 8.832031 0.0390625 7 -0.59375 C 5.164062 -1.226562 3.554688 -2.035156 2.171875 -3.015625 L 4.078125 -6.421875 C 5.171875 -5.597656 6.484375 -4.894531 8.015625 -4.3125 C 9.554688 -3.738281 10.992188 -3.453125 12.328125 -3.453125 C 14.035156 -3.453125 15.53125 -3.894531 16.8125 -4.78125 C 18.101562 -5.675781 18.75 -6.992188 18.75 -8.734375 C 18.75 -10.210938 18.207031 -11.382812 17.125 -12.25 C 16.050781 -13.125 14.539062 -13.945312 12.59375 -14.71875 C 10.789062 -15.394531 9.289062 -16.054688 8.09375 -16.703125 C 6.894531 -17.359375 5.863281 -18.253906 5 -19.390625 C 4.144531 -20.523438 3.71875 -21.953125 3.71875 -23.671875 C 3.71875 -26.179688 4.597656 -28.210938 6.359375 -29.765625 C 8.117188 -31.316406 10.398438 -32.140625 13.203125 -32.234375 C 16.660156 -32.234375 19.867188 -31.375 22.828125 -29.65625 Z M 21.1875 -26.328125 "/></g></g></g><g fill="#000000" fill-opacity="1"><g transform="translate(307.335913, 255.546005)"><g/></g></g><g fill="#000000" fill-opacity="1"><g transform="translate(321.341124, 255.546005)"><g><path d="M 21.40625 -8.421875 L 9.09375 -8.421875 L 5.671875 0 L 1.421875 0 L 15.421875 -33.375 L 15.6875 -33.375 L 29.703125 0 L 24.734375 0 Z M 19.953125 -12.140625 L 15.375 -23.84375 L 10.640625 -12.140625 Z M 19.953125 -12.140625 "/></g></g></g><g fill="#000000" fill-opacity="1"><g transform="translate(352.409656, 255.546005)"><g><path d="M 8.90625 -32.046875 L 8.90625 0 L 4.609375 0 L 4.609375 -32.046875 Z M 8.90625 -32.046875 "/></g></g></g><g fill="#000000" fill-opacity="1"><g transform="translate(66.000689, 296.789189)"><g><path d="M 2.390625 0 L 3.890625 -4.179688 L 11.621094 -4.179688 L 13.121094 0 L 15.199219 0 L 8.917969 -17.054688 L 6.59375 -17.054688 L 0.3125 0 Z M 7.753906 -14.953125 L 10.929688 -6.011719 L 4.582031 -6.011719 Z M 7.753906 -14.953125 "/></g></g></g><g fill="#000000" fill-opacity="1"><g transform="translate(83.745373, 296.789189)"><g><path d="M 3.488281 0 L 3.488281 -6.503906 C 3.488281 -8.046875 3.867188 -9.097656 4.582031 -9.789062 C 5.164062 -10.371094 5.96875 -10.683594 6.972656 -10.683594 L 7.621094 -10.683594 L 7.621094 -12.582031 L 7.53125 -12.582031 C 5.855469 -12.582031 4.625 -12.046875 3.488281 -10.660156 L 3.488281 -12.359375 L 1.585938 -12.359375 L 1.585938 0 Z M 3.488281 0 "/></g></g></g><g fill="#000000" fill-opacity="1"><g transform="translate(94.092997, 296.789189)"><g><path d="M 7.242188 0 L 7.242188 -1.675781 L 5.96875 -1.675781 C 4.582031 -1.675781 4.492188 -2.390625 4.492188 -3.488281 L 4.492188 -10.683594 L 7.265625 -10.683594 L 7.265625 -12.359375 L 4.492188 -12.359375 L 4.492188 -17.054688 L 2.59375 -17.054688 L 2.59375 -12.359375 L 0.601562 -12.359375 L 0.601562 -10.683594 L 2.59375 -10.683594 L 2.59375 -3.105469 C 2.59375 -0.625 3.664062 0 5.519531 0 Z M 7.242188 0 "/></g></g></g><g fill="#000000" fill-opacity="1"><g transform="translate(104.395921, 296.789189)"><g><path d="M 2.546875 -14.484375 C 3.351562 -14.484375 4 -15.109375 4 -15.890625 C 4 -16.652344 3.351562 -17.277344 2.546875 -17.277344 C 1.742188 -17.277344 1.09375 -16.652344 1.09375 -15.890625 C 1.09375 -15.109375 1.742188 -14.484375 2.546875 -14.484375 Z M 3.488281 0 L 3.488281 -12.359375 L 1.585938 -12.359375 L 1.585938 0 Z M 3.488281 0 "/></g></g></g><g fill="#000000" fill-opacity="1"><g transform="translate(111.704269, 296.789189)"><g><path d="M 7.0625 0.222656 C 9.835938 0.222656 12 -1.339844 12.539062 -3.976562 L 10.503906 -3.976562 C 10.101562 -2.457031 8.785156 -1.453125 7.0625 -1.453125 C 4.714844 -1.453125 2.972656 -3.417969 2.972656 -6.234375 C 2.972656 -8.960938 4.714844 -10.90625 7.0625 -10.90625 C 8.648438 -10.90625 9.945312 -10.035156 10.414062 -8.648438 L 12.449219 -8.648438 C 11.890625 -11.039062 9.835938 -12.582031 7.0625 -12.582031 C 3.53125 -12.582031 1.074219 -9.902344 1.074219 -6.234375 C 1.074219 -2.457031 3.554688 0.222656 7.0625 0.222656 Z M 7.0625 0.222656 "/></g></g></g><g fill="#000000" fill-opacity="1"><g transform="translate(127.392973, 296.789189)"><g><path d="M 5.519531 0 L 5.519531 -1.675781 L 4.917969 -1.675781 C 3.53125 -1.675781 3.441406 -2.300781 3.441406 -3.398438 L 3.441406 -17.054688 L 1.542969 -17.054688 L 1.542969 -3.105469 C 1.542969 -0.625 2.613281 0 4.46875 0 Z M 5.519531 0 "/></g></g></g><g fill="#000000" fill-opacity="1"><g transform="translate(135.818697, 296.789189)"><g><path d="M 7.085938 0.222656 C 10.148438 0.222656 12.023438 -1.652344 12.785156 -3.976562 L 10.75 -3.976562 C 10.214844 -2.613281 8.941406 -1.453125 7.0625 -1.453125 C 5.273438 -1.453125 3.820312 -2.683594 3.195312 -4.582031 C 3.0625 -4.960938 2.972656 -5.429688 2.949219 -5.8125 L 13.007812 -5.8125 L 13.007812 -6.480469 C 13.007812 -10.460938 10.148438 -12.582031 7.039062 -12.582031 C 3.21875 -12.582031 1.074219 -9.5 1.074219 -6.144531 C 1.074219 -2.503906 3.53125 0.222656 7.085938 0.222656 Z M 3.128906 -7.488281 C 3.195312 -7.867188 3.308594 -8.3125 3.488281 -8.695312 C 4.15625 -10.101562 5.429688 -10.90625 7.085938 -10.90625 C 8.671875 -10.90625 10.058594 -10.125 10.707031 -8.695312 C 10.863281 -8.335938 10.953125 -7.890625 10.972656 -7.488281 Z M 3.128906 -7.488281 "/></g></g></g><g fill="#000000" fill-opacity="1"><g transform="translate(152.110791, 296.789189)"><g/></g></g><g fill="#000000" fill-opacity="1"><g transform="translate(160.603554, 296.789189)"><g><path d="M 7.933594 0.222656 C 11.824219 0.222656 13.902344 -1.742188 13.902344 -4.761719 C 13.902344 -8.492188 10.839844 -9.140625 8.046875 -9.746094 C 5.765625 -10.234375 3.6875 -10.683594 3.6875 -12.761719 C 3.6875 -14.394531 4.894531 -15.445312 7.195312 -15.445312 C 9.074219 -15.445312 10.929688 -14.683594 11.421875 -12.359375 L 13.410156 -12.359375 C 12.851562 -15.867188 10.101562 -17.277344 7.21875 -17.277344 C 3.890625 -17.277344 1.632812 -15.488281 1.632812 -12.582031 C 1.632812 -9.230469 4.46875 -8.628906 7.128906 -8.066406 C 9.542969 -7.554688 11.84375 -7.0625 11.84375 -4.625 C 11.84375 -2.59375 10.414062 -1.609375 8.023438 -1.609375 C 5.902344 -1.609375 3.554688 -2.4375 3.015625 -5.164062 L 0.9375 -5.164062 C 1.519531 -1.339844 4.558594 0.222656 7.933594 0.222656 Z M 7.933594 0.222656 "/></g></g></g><g fill="#000000" fill-opacity="1"><g transform="translate(177.878936, 296.789189)"><g><path d="M 5.765625 0.222656 C 7.175781 0.222656 8.246094 -0.402344 9.433594 -1.921875 L 9.433594 0 L 11.332031 0 L 11.332031 -12.359375 L 9.433594 -12.359375 L 9.433594 -7.085938 C 9.433594 -4.558594 9.117188 -3.21875 8.3125 -2.367188 C 7.753906 -1.765625 6.996094 -1.453125 6.058594 -1.453125 C 5.207031 -1.453125 4.582031 -1.675781 4.15625 -2.144531 C 3.664062 -2.703125 3.441406 -3.574219 3.441406 -4.917969 L 3.441406 -12.359375 L 1.542969 -12.359375 L 1.542969 -4.917969 C 1.542969 -3.488281 1.722656 -2.480469 2.125 -1.722656 C 2.816406 -0.425781 4.023438 0.222656 5.765625 0.222656 Z M 5.765625 0.222656 "/></g></g></g><g fill="#000000" fill-opacity="1"><g transform="translate(193.031302, 296.789189)"><g><path d="M 3.488281 0 L 3.488281 -5.585938 C 3.488281 -7.933594 3.867188 -9.1875 4.605469 -10.011719 C 5.097656 -10.570312 5.789062 -10.90625 6.617188 -10.90625 C 8.136719 -10.90625 9.140625 -9.699219 9.140625 -7.597656 L 9.140625 0 L 11.039062 0 L 11.039062 -5.585938 C 11.039062 -7.710938 11.308594 -9.140625 12.179688 -10.078125 C 12.648438 -10.570312 13.296875 -10.90625 14.191406 -10.90625 C 15.757812 -10.90625 16.695312 -9.746094 16.695312 -7.597656 L 16.695312 0 L 18.59375 0 L 18.59375 -8.046875 C 18.59375 -10.90625 17.277344 -12.582031 14.484375 -12.582031 C 12.964844 -12.582031 11.488281 -12.089844 10.570312 -10.304688 C 10.191406 -11.84375 8.738281 -12.582031 7.152344 -12.582031 C 5.8125 -12.582031 4.738281 -12.046875 3.488281 -10.4375 L 3.488281 -12.359375 L 1.585938 -12.359375 L 1.585938 0 Z M 3.488281 0 "/></g></g></g><g fill="#000000" fill-opacity="1"><g transform="translate(215.357247, 296.789189)"><g><path d="M 3.488281 0 L 3.488281 -5.585938 C 3.488281 -7.933594 3.867188 -9.1875 4.605469 -10.011719 C 5.097656 -10.570312 5.789062 -10.90625 6.617188 -10.90625 C 8.136719 -10.90625 9.140625 -9.699219 9.140625 -7.597656 L 9.140625 0 L 11.039062 0 L 11.039062 -5.585938 C 11.039062 -7.710938 11.308594 -9.140625 12.179688 -10.078125 C 12.648438 -10.570312 13.296875 -10.90625 14.191406 -10.90625 C 15.757812 -10.90625 16.695312 -9.746094 16.695312 -7.597656 L 16.695312 0 L 18.59375 0 L 18.59375 -8.046875 C 18.59375 -10.90625 17.277344 -12.582031 14.484375 -12.582031 C 12.964844 -12.582031 11.488281 -12.089844 10.570312 -10.304688 C 10.191406 -11.84375 8.738281 -12.582031 7.152344 -12.582031 C 5.8125 -12.582031 4.738281 -12.046875 3.488281 -10.4375 L 3.488281 -12.359375 L 1.585938 -12.359375 L 1.585938 0 Z M 3.488281 0 "/></g></g></g><g fill="#000000" fill-opacity="1"><g transform="translate(237.683193, 296.789189)"><g><path d="M 5.097656 0.222656 C 6.234375 0.222656 7.195312 0.0234375 8.023438 -0.492188 C 8.582031 -0.828125 9.074219 -1.296875 9.519531 -1.945312 L 9.519531 0 L 11.421875 0 L 11.421875 -7.285156 C 11.421875 -8.113281 11.421875 -10.058594 10.125 -11.308594 C 9.253906 -12.160156 7.933594 -12.582031 6.503906 -12.582031 C 4.132812 -12.582031 1.96875 -11.21875 1.542969 -8.648438 L 3.441406 -8.648438 C 3.734375 -10.035156 4.960938 -10.90625 6.480469 -10.90625 C 7.441406 -10.90625 8.226562 -10.59375 8.761719 -10.058594 C 9.273438 -9.542969 9.519531 -8.804688 9.519531 -7.84375 L 5.117188 -6.996094 C 3.890625 -6.75 2.949219 -6.371094 2.28125 -5.832031 C 1.476562 -5.207031 1.074219 -4.335938 1.074219 -3.285156 C 1.074219 -1.117188 2.613281 0.222656 5.097656 0.222656 Z M 5.320312 -1.453125 C 3.890625 -1.453125 2.972656 -2.191406 2.972656 -3.332031 C 2.972656 -3.867188 3.152344 -4.292969 3.488281 -4.625 C 3.910156 -5.027344 4.582031 -5.320312 5.519531 -5.5 L 9.542969 -6.300781 C 9.542969 -4.246094 9.050781 -2.792969 7.285156 -1.878906 C 6.726562 -1.585938 6.078125 -1.453125 5.320312 -1.453125 Z M 5.320312 -1.453125 "/></g></g></g><g fill="#000000" fill-opacity="1"><g transform="translate(252.790858, 296.789189)"><g><path d="M 3.488281 0 L 3.488281 -6.503906 C 3.488281 -8.046875 3.867188 -9.097656 4.582031 -9.789062 C 5.164062 -10.371094 5.96875 -10.683594 6.972656 -10.683594 L 7.621094 -10.683594 L 7.621094 -12.582031 L 7.53125 -12.582031 C 5.855469 -12.582031 4.625 -12.046875 3.488281 -10.660156 L 3.488281 -12.359375 L 1.585938 -12.359375 L 1.585938 0 Z M 3.488281 0 "/></g></g></g><g fill="#000000" fill-opacity="1"><g transform="translate(263.138479, 296.789189)"><g><path d="M 11.039062 0 L 11.039062 -1.675781 L 3.21875 -1.675781 L 11.109375 -10.570312 L 11.109375 -12.359375 L 1.183594 -12.359375 L 1.183594 -10.683594 L 8.804688 -10.683594 L 0.761719 -1.609375 L 0.761719 0 Z M 11.039062 0 "/></g></g></g><g fill="#000000" fill-opacity="1"><g transform="translate(277.285207, 296.789189)"><g><path d="M 2.546875 -14.484375 C 3.351562 -14.484375 4 -15.109375 4 -15.890625 C 4 -16.652344 3.351562 -17.277344 2.546875 -17.277344 C 1.742188 -17.277344 1.09375 -16.652344 1.09375 -15.890625 C 1.09375 -15.109375 1.742188 -14.484375 2.546875 -14.484375 Z M 3.488281 0 L 3.488281 -12.359375 L 1.585938 -12.359375 L 1.585938 0 Z M 3.488281 0 "/></g></g></g><g fill="#000000" fill-opacity="1"><g transform="translate(284.593564, 296.789189)"><g><path d="M 7.085938 0.222656 C 10.148438 0.222656 12.023438 -1.652344 12.785156 -3.976562 L 10.75 -3.976562 C 10.214844 -2.613281 8.941406 -1.453125 7.0625 -1.453125 C 5.273438 -1.453125 3.820312 -2.683594 3.195312 -4.582031 C 3.0625 -4.960938 2.972656 -5.429688 2.949219 -5.8125 L 13.007812 -5.8125 L 13.007812 -6.480469 C 13.007812 -10.460938 10.148438 -12.582031 7.039062 -12.582031 C 3.21875 -12.582031 1.074219 -9.5 1.074219 -6.144531 C 1.074219 -2.503906 3.53125 0.222656 7.085938 0.222656 Z M 3.128906 -7.488281 C 3.195312 -7.867188 3.308594 -8.3125 3.488281 -8.695312 C 4.15625 -10.101562 5.429688 -10.90625 7.085938 -10.90625 C 8.671875 -10.90625 10.058594 -10.125 10.707031 -8.695312 C 10.863281 -8.335938 10.953125 -7.890625 10.972656 -7.488281 Z M 3.128906 -7.488281 "/></g></g></g><g fill="#000000" fill-opacity="1"><g transform="translate(300.885669, 296.789189)"><g><path d="M 3.488281 0 L 3.488281 -6.503906 C 3.488281 -8.046875 3.867188 -9.097656 4.582031 -9.789062 C 5.164062 -10.371094 5.96875 -10.683594 6.972656 -10.683594 L 7.621094 -10.683594 L 7.621094 -12.582031 L 7.53125 -12.582031 C 5.855469 -12.582031 4.625 -12.046875 3.488281 -10.660156 L 3.488281 -12.359375 L 1.585938 -12.359375 L 1.585938 0 Z M 3.488281 0 "/></g></g></g></svg>